# xmcd
#
# Track frame offsets:
#	150
#	17131
#	39439
#	56492
#	68916
#	98152
#	118174
#	140509
#	157484
#	168170
#
# Disc length: 2574 seconds
#
# Revision: 0
# Processed by: cddbd v1.4PL0 Copyright (c) Steve Scherf et al.
# Submitted via: audiograbber 1.80
#
DISCID=8a0a0c0a
DTITLE=The Eagles - The Long Run                 FJGG
DYEAR=1900
DGENRE=
TTITLE0=The Long Run
TTITLE1=I Can't Tell You Why
TTITLE2=In The City
TTITLE3=The Disco Strangler
TTITLE4=King of Hollywood
TTITLE5=Heartache Tonight
TTITLE6=Those Shoes
TTITLE7=Teenage Jail
TTITLE8=The Greek's Don't Want No Freeks
TTITLE9=The Sad Cafe
EXTD=
EXTT0=
EXTT1=
EXTT2=
EXTT3=
EXTT4=
EXTT5=
EXTT6=
EXTT7=
EXTT8=
EXTT9=
PLAYORDER=
